<svg width="613" height="520" viewBox="0 0 613 520" fill="none" xmlns="http://www.w3.org/2000/svg">
<rect width="613" height="521" fill="#EEF0F2"/>
<g clip-path="url(#clip0_2913_69736)">
<rect width="613" height="521" fill="#EEF0F2"/>
<rect x="152" y="43" width="2" height="478" fill="#F8F9FA"/>
<rect x="306" y="43" width="2" height="478" fill="#F8F9FA"/>
<rect x="460" y="43" width="2" height="478" fill="#F8F9FA"/>
<g filter="url(#filter0_d_2913_69736)">
<rect x="312.409" y="219.602" width="142.796" height="71.3978" rx="2.16357" fill="#F8F9FA"/>
<path d="M324.709 236.283V240.827H334.735V236.283H324.709Z" fill="#989EA4"/>
<path d="M333.376 236.283V240.827H343.402V236.283H333.376Z" fill="#989EA4"/>
<path d="M342.043 236.283V240.827H352.069V236.283H342.043Z" fill="#989EA4"/>
<path d="M359.791 236.283V240.827H365.486V236.283H359.791Z" fill="#989EA4"/>
<path d="M364.125 236.283V240.827H374.15V236.283H364.125Z" fill="#989EA4"/>
<path d="M372.791 236.283V240.827H382.817V236.283H372.791Z" fill="#989EA4"/>
<path d="M381.458 236.283V240.827H387.153V236.283H381.458Z" fill="#989EA4"/>
<path d="M385.792 236.283V240.827H395.818V236.283H385.792Z" fill="#989EA4"/>
<path d="M394.459 236.283V240.827H400.153V236.283H394.459Z" fill="#989EA4"/>
<path d="M398.792 236.283V240.827H408.818V236.283H398.792Z" fill="#989EA4"/>
<rect x="313.491" y="220.684" width="140.632" height="69.2342" rx="1.08178" stroke="white" stroke-width="2.16357"/>
</g>
<g clip-path="url(#clip1_2913_69736)">
<rect x="312.409" y="184.985" width="142.796" height="30.29" rx="2.16357" fill="#F2E4C2"/>
<g opacity="0.5">
<rect x="426.964" y="149.827" width="2.16357" height="90.8699" transform="rotate(45 426.964 149.827)" fill="white"/>
<rect x="436.496" y="149.827" width="2.16357" height="90.8699" transform="rotate(45 436.496 149.827)" fill="white"/>
<rect x="446.027" y="149.827" width="2.16357" height="90.8699" transform="rotate(45 446.027 149.827)" fill="white"/>
<rect x="455.559" y="149.827" width="2.16357" height="90.8699" transform="rotate(45 455.559 149.827)" fill="white"/>
<rect x="350.711" y="149.827" width="2.16357" height="90.8699" transform="rotate(45 350.711 149.827)" fill="white"/>
<rect x="465.09" y="149.827" width="2.16357" height="90.8699" transform="rotate(45 465.09 149.827)" fill="white"/>
<rect x="360.243" y="149.827" width="2.16357" height="90.8699" transform="rotate(45 360.243 149.827)" fill="white"/>
<rect x="474.622" y="149.827" width="2.16357" height="90.8699" transform="rotate(45 474.622 149.827)" fill="white"/>
<rect x="369.774" y="149.827" width="2.16357" height="90.8699" transform="rotate(45 369.774 149.827)" fill="white"/>
<rect x="484.154" y="149.827" width="2.16357" height="90.8699" transform="rotate(45 484.154 149.827)" fill="white"/>
<rect x="379.306" y="149.827" width="2.16357" height="90.8699" transform="rotate(45 379.306 149.827)" fill="white"/>
<rect x="493.686" y="149.827" width="2.16357" height="90.8699" transform="rotate(45 493.686 149.827)" fill="white"/>
<rect x="388.837" y="149.827" width="2.16357" height="90.8699" transform="rotate(45 388.837 149.827)" fill="white"/>
<rect x="503.217" y="149.827" width="2.16357" height="90.8699" transform="rotate(45 503.217 149.827)" fill="white"/>
<rect x="512.749" y="149.827" width="2.16357" height="90.8699" transform="rotate(45 512.749 149.827)" fill="white"/>
<rect x="398.369" y="149.827" width="2.16357" height="90.8699" transform="rotate(45 398.369 149.827)" fill="white"/>
<rect x="407.901" y="149.827" width="2.16357" height="90.8699" transform="rotate(45 407.901 149.827)" fill="white"/>
<rect x="417.432" y="149.827" width="2.16357" height="90.8699" transform="rotate(45 417.432 149.827)" fill="white"/>
</g>
<path d="M322.187 205.539V195.311H325.933C326.658 195.311 327.259 195.431 327.735 195.671C328.211 195.907 328.568 196.228 328.804 196.635C329.04 197.037 329.159 197.492 329.159 197.998C329.159 198.424 329.08 198.784 328.924 199.077C328.767 199.366 328.558 199.599 328.295 199.776C328.035 199.949 327.749 200.076 327.436 200.155V200.255C327.775 200.272 328.107 200.382 328.43 200.585C328.756 200.785 329.026 201.069 329.239 201.439C329.452 201.808 329.558 202.258 329.558 202.787C329.558 203.31 329.435 203.779 329.189 204.196C328.946 204.608 328.569 204.936 328.06 205.179C327.551 205.419 326.9 205.539 326.107 205.539H322.187ZM323.73 204.216H325.958C326.697 204.216 327.226 204.072 327.546 203.786C327.865 203.5 328.025 203.142 328.025 202.712C328.025 202.389 327.943 202.093 327.78 201.823C327.617 201.554 327.384 201.339 327.081 201.179C326.782 201.019 326.425 200.939 326.012 200.939H323.73V204.216ZM323.73 199.736H325.798C326.144 199.736 326.455 199.669 326.732 199.536C327.011 199.403 327.233 199.217 327.396 198.977C327.562 198.734 327.645 198.447 327.645 198.118C327.645 197.695 327.497 197.34 327.201 197.054C326.905 196.768 326.45 196.625 325.838 196.625H323.73V199.736Z" fill="#35393D"/>
<path d="M336.128 202.358V197.868H337.626V205.539H336.158V204.211H336.078C335.901 204.62 335.618 204.961 335.229 205.234C334.843 205.504 334.362 205.639 333.786 205.639C333.293 205.639 332.857 205.531 332.477 205.314C332.101 205.095 331.805 204.77 331.588 204.34C331.375 203.911 331.269 203.38 331.269 202.747V197.868H332.762V202.568C332.762 203.09 332.907 203.506 333.196 203.816C333.486 204.126 333.862 204.28 334.325 204.28C334.605 204.28 334.883 204.211 335.159 204.071C335.439 203.931 335.67 203.72 335.853 203.437C336.04 203.154 336.131 202.794 336.128 202.358Z" fill="#35393D"/>
<path d="M343.283 197.868V199.067H338.948V197.868H343.283ZM340.137 205.539V196.979C340.137 196.5 340.242 196.102 340.451 195.786C340.661 195.466 340.939 195.228 341.285 195.072C341.632 194.912 342.008 194.832 342.414 194.832C342.714 194.832 342.97 194.857 343.183 194.907C343.396 194.953 343.554 194.997 343.658 195.037L343.308 196.245C343.238 196.225 343.148 196.202 343.038 196.175C342.928 196.145 342.795 196.13 342.639 196.13C342.276 196.13 342.016 196.22 341.86 196.4C341.707 196.58 341.63 196.839 341.63 197.179V205.539H340.137Z" fill="#35393D"/>
<path d="M348.474 197.868V199.067H344.14V197.868H348.474ZM345.328 205.539V196.979C345.328 196.5 345.433 196.102 345.643 195.786C345.852 195.466 346.13 195.228 346.477 195.072C346.823 194.912 347.199 194.832 347.605 194.832C347.905 194.832 348.161 194.857 348.374 194.907C348.588 194.953 348.746 194.997 348.849 195.037L348.499 196.245C348.429 196.225 348.34 196.202 348.23 196.175C348.12 196.145 347.987 196.13 347.83 196.13C347.467 196.13 347.208 196.22 347.051 196.4C346.898 196.58 346.821 196.839 346.821 197.179V205.539H345.328Z" fill="#35393D"/>
<path d="M353.019 205.694C352.263 205.694 351.612 205.532 351.066 205.209C350.524 204.883 350.104 204.425 349.808 203.836C349.515 203.243 349.368 202.549 349.368 201.754C349.368 200.968 349.515 200.275 349.808 199.676C350.104 199.077 350.517 198.609 351.046 198.273C351.579 197.936 352.202 197.768 352.914 197.768C353.347 197.768 353.766 197.84 354.173 197.983C354.579 198.126 354.943 198.351 355.266 198.657C355.589 198.964 355.844 199.361 356.03 199.851C356.217 200.337 356.31 200.928 356.31 201.624V202.153H350.212V201.034H354.847C354.847 200.642 354.767 200.294 354.607 199.991C354.447 199.684 354.222 199.443 353.933 199.266C353.647 199.09 353.31 199.002 352.924 199.002C352.505 199.002 352.138 199.105 351.825 199.311C351.516 199.515 351.276 199.781 351.106 200.11C350.94 200.437 350.857 200.791 350.857 201.174V202.048C350.857 202.561 350.946 202.997 351.126 203.357C351.309 203.716 351.564 203.991 351.89 204.181C352.217 204.367 352.598 204.46 353.034 204.46C353.317 204.46 353.575 204.42 353.808 204.34C354.041 204.257 354.242 204.134 354.412 203.971C354.582 203.808 354.712 203.606 354.802 203.367L356.215 203.621C356.102 204.037 355.899 204.402 355.606 204.715C355.316 205.025 354.952 205.266 354.512 205.439C354.076 205.609 353.578 205.694 353.019 205.694Z" fill="#35393D"/>
<path d="M357.967 205.539V197.868H359.41V199.087H359.49C359.63 198.674 359.876 198.349 360.229 198.113C360.585 197.873 360.988 197.753 361.438 197.753C361.531 197.753 361.641 197.757 361.767 197.763C361.897 197.77 361.999 197.778 362.072 197.788V199.217C362.012 199.2 361.905 199.182 361.752 199.162C361.599 199.138 361.446 199.127 361.293 199.127C360.94 199.127 360.625 199.202 360.349 199.351C360.076 199.498 359.86 199.703 359.7 199.966C359.54 200.225 359.46 200.522 359.46 200.855V205.539H357.967Z" fill="#35393D"/>
</g>
<rect x="313.491" y="186.067" width="140.632" height="28.1264" rx="1.08178" stroke="white" stroke-width="2.16357" stroke-miterlimit="3.52094"/>
<g clip-path="url(#clip2_2913_69736)">
<rect x="312.409" y="295.985" width="142.796" height="30.29" rx="2.16357" fill="#F2E4C2"/>
<g opacity="0.5">
<rect x="426.964" y="260.827" width="2.16357" height="90.8699" transform="rotate(45 426.964 260.827)" fill="white"/>
<rect x="436.496" y="260.827" width="2.16357" height="90.8699" transform="rotate(45 436.496 260.827)" fill="white"/>
<rect x="446.027" y="260.827" width="2.16357" height="90.8699" transform="rotate(45 446.027 260.827)" fill="white"/>
<rect x="455.559" y="260.827" width="2.16357" height="90.8699" transform="rotate(45 455.559 260.827)" fill="white"/>
<rect x="350.711" y="260.827" width="2.16357" height="90.8699" transform="rotate(45 350.711 260.827)" fill="white"/>
<rect x="465.09" y="260.827" width="2.16357" height="90.8699" transform="rotate(45 465.09 260.827)" fill="white"/>
<rect x="360.242" y="260.827" width="2.16357" height="90.8699" transform="rotate(45 360.242 260.827)" fill="white"/>
<rect x="474.622" y="260.827" width="2.16357" height="90.8699" transform="rotate(45 474.622 260.827)" fill="white"/>
<rect x="369.774" y="260.827" width="2.16357" height="90.8699" transform="rotate(45 369.774 260.827)" fill="white"/>
<rect x="484.154" y="260.827" width="2.16357" height="90.8699" transform="rotate(45 484.154 260.827)" fill="white"/>
<rect x="379.306" y="260.827" width="2.16357" height="90.8699" transform="rotate(45 379.306 260.827)" fill="white"/>
<rect x="493.685" y="260.827" width="2.16357" height="90.8699" transform="rotate(45 493.685 260.827)" fill="white"/>
<rect x="388.837" y="260.827" width="2.16357" height="90.8699" transform="rotate(45 388.837 260.827)" fill="white"/>
<rect x="503.217" y="260.827" width="2.16357" height="90.8699" transform="rotate(45 503.217 260.827)" fill="white"/>
<rect x="512.749" y="260.827" width="2.16357" height="90.8699" transform="rotate(45 512.749 260.827)" fill="white"/>
<rect x="398.369" y="260.827" width="2.16357" height="90.8699" transform="rotate(45 398.369 260.827)" fill="white"/>
<rect x="407.901" y="260.827" width="2.16357" height="90.8699" transform="rotate(45 407.901 260.827)" fill="white"/>
<rect x="417.432" y="260.827" width="2.16357" height="90.8699" transform="rotate(45 417.432 260.827)" fill="white"/>
</g>
<path d="M322.187 316.539V306.311H325.932C326.658 306.311 327.259 306.431 327.735 306.671C328.211 306.907 328.568 307.228 328.804 307.635C329.04 308.037 329.159 308.492 329.159 308.998C329.159 309.424 329.08 309.784 328.924 310.077C328.767 310.366 328.558 310.599 328.295 310.776C328.035 310.949 327.749 311.076 327.436 311.155V311.255C327.775 311.272 328.106 311.382 328.429 311.585C328.756 311.785 329.025 312.069 329.238 312.439C329.452 312.808 329.558 313.258 329.558 313.787C329.558 314.31 329.435 314.779 329.189 315.196C328.945 315.608 328.569 315.936 328.06 316.179C327.55 316.419 326.9 316.539 326.107 316.539H322.187ZM323.73 315.216H325.957C326.697 315.216 327.226 315.072 327.545 314.786C327.865 314.5 328.025 314.142 328.025 313.712C328.025 313.389 327.943 313.093 327.78 312.823C327.617 312.554 327.384 312.339 327.081 312.179C326.781 312.019 326.425 311.939 326.012 311.939H323.73V315.216ZM323.73 310.736H325.798C326.144 310.736 326.455 310.669 326.731 310.536C327.011 310.403 327.233 310.217 327.396 309.977C327.562 309.734 327.645 309.447 327.645 309.118C327.645 308.695 327.497 308.34 327.201 308.054C326.905 307.768 326.45 307.625 325.838 307.625H323.73V310.736Z" fill="#35393D"/>
<path d="M336.128 313.358V308.868H337.626V316.539H336.158V315.211H336.078C335.901 315.62 335.618 315.961 335.229 316.234C334.843 316.504 334.362 316.639 333.786 316.639C333.293 316.639 332.857 316.531 332.477 316.314C332.101 316.095 331.805 315.77 331.588 315.34C331.375 314.911 331.269 314.38 331.269 313.747V308.868H332.762V313.568C332.762 314.09 332.907 314.506 333.196 314.816C333.486 315.126 333.862 315.28 334.325 315.28C334.605 315.28 334.883 315.211 335.159 315.071C335.439 314.931 335.67 314.72 335.853 314.437C336.04 314.154 336.131 313.794 336.128 313.358Z" fill="#35393D"/>
<path d="M343.283 308.868V310.067H338.948V308.868H343.283ZM340.137 316.539V307.979C340.137 307.5 340.242 307.102 340.451 306.786C340.661 306.466 340.939 306.228 341.285 306.072C341.632 305.912 342.008 305.832 342.414 305.832C342.714 305.832 342.97 305.857 343.183 305.907C343.396 305.953 343.554 305.997 343.657 306.037L343.308 307.245C343.238 307.225 343.148 307.202 343.038 307.175C342.928 307.145 342.795 307.13 342.639 307.13C342.276 307.13 342.016 307.22 341.86 307.4C341.706 307.58 341.63 307.839 341.63 308.179V316.539H340.137Z" fill="#35393D"/>
<path d="M348.474 308.868V310.067H344.139V308.868H348.474ZM345.328 316.539V307.979C345.328 307.5 345.433 307.102 345.643 306.786C345.852 306.466 346.13 306.228 346.477 306.072C346.823 305.912 347.199 305.832 347.605 305.832C347.905 305.832 348.161 305.857 348.374 305.907C348.587 305.953 348.746 305.997 348.849 306.037L348.499 307.245C348.429 307.225 348.339 307.202 348.23 307.175C348.12 307.145 347.986 307.13 347.83 307.13C347.467 307.13 347.207 307.22 347.051 307.4C346.898 307.58 346.821 307.839 346.821 308.179V316.539H345.328Z" fill="#35393D"/>
<path d="M353.019 316.694C352.263 316.694 351.612 316.532 351.066 316.209C350.523 315.883 350.104 315.425 349.808 314.836C349.515 314.243 349.368 313.549 349.368 312.754C349.368 311.968 349.515 311.275 349.808 310.676C350.104 310.077 350.517 309.609 351.046 309.273C351.579 308.936 352.201 308.768 352.914 308.768C353.347 308.768 353.766 308.84 354.172 308.983C354.579 309.126 354.943 309.351 355.266 309.657C355.589 309.964 355.844 310.361 356.03 310.851C356.217 311.337 356.31 311.928 356.31 312.624V313.153H350.212V312.034H354.847C354.847 311.642 354.767 311.294 354.607 310.991C354.447 310.684 354.222 310.443 353.933 310.266C353.646 310.09 353.31 310.002 352.924 310.002C352.504 310.002 352.138 310.105 351.825 310.311C351.516 310.515 351.276 310.781 351.106 311.11C350.94 311.437 350.856 311.791 350.856 312.174V313.048C350.856 313.561 350.946 313.997 351.126 314.357C351.309 314.716 351.564 314.991 351.89 315.181C352.216 315.367 352.598 315.46 353.034 315.46C353.317 315.46 353.575 315.42 353.808 315.34C354.041 315.257 354.242 315.134 354.412 314.971C354.582 314.808 354.712 314.606 354.802 314.367L356.215 314.621C356.102 315.037 355.899 315.402 355.606 315.715C355.316 316.025 354.951 316.266 354.512 316.439C354.076 316.609 353.578 316.694 353.019 316.694Z" fill="#35393D"/>
<path d="M357.967 316.539V308.868H359.41V310.087H359.49C359.63 309.674 359.876 309.349 360.229 309.113C360.585 308.873 360.988 308.753 361.437 308.753C361.531 308.753 361.641 308.757 361.767 308.763C361.897 308.77 361.998 308.778 362.072 308.788V310.217C362.012 310.2 361.905 310.182 361.752 310.162C361.599 310.138 361.446 310.127 361.293 310.127C360.94 310.127 360.625 310.202 360.349 310.351C360.076 310.498 359.859 310.703 359.7 310.966C359.54 311.225 359.46 311.522 359.46 311.855V316.539H357.967Z" fill="#35393D"/>
</g>
<rect x="313.49" y="297.067" width="140.632" height="28.1264" rx="1.08178" stroke="white" stroke-width="2.16357" stroke-miterlimit="3.52094"/>
<g clip-path="url(#clip3_2913_69736)">
<rect x="158.795" y="114.669" width="142.796" height="58.4164" rx="2.16357" fill="#F2C2C2"/>
<g opacity="0.15">
<rect x="273.351" y="105.474" width="2.16357" height="90.8699" transform="rotate(45 273.351 105.474)" fill="white"/>
<rect x="282.882" y="105.474" width="2.16357" height="90.8699" transform="rotate(45 282.882 105.474)" fill="white"/>
<rect x="292.414" y="105.474" width="2.16357" height="90.8699" transform="rotate(45 292.414 105.474)" fill="white"/>
<rect x="301.946" y="105.474" width="2.16357" height="90.8699" transform="rotate(45 301.946 105.474)" fill="white"/>
<rect x="197.098" y="105.474" width="2.16357" height="90.8699" transform="rotate(45 197.098 105.474)" fill="white"/>
<rect x="188.443" y="105.474" width="2.16357" height="90.8699" transform="rotate(45 188.443 105.474)" fill="white"/>
<rect x="179.789" y="105.474" width="2.16357" height="90.8699" transform="rotate(45 179.789 105.474)" fill="white"/>
<rect x="171.135" y="105.474" width="2.16357" height="90.8699" transform="rotate(45 171.135 105.474)" fill="white"/>
<rect x="311.477" y="105.474" width="2.16357" height="90.8699" transform="rotate(45 311.477 105.474)" fill="white"/>
<rect x="206.629" y="105.474" width="2.16357" height="90.8699" transform="rotate(45 206.629 105.474)" fill="white"/>
<rect x="321.009" y="105.474" width="2.16357" height="90.8699" transform="rotate(45 321.009 105.474)" fill="white"/>
<rect x="216.161" y="105.474" width="2.16357" height="90.8699" transform="rotate(45 216.161 105.474)" fill="white"/>
<rect x="330.541" y="105.474" width="2.16357" height="90.8699" transform="rotate(45 330.541 105.474)" fill="white"/>
<rect x="225.693" y="105.474" width="2.16357" height="90.8699" transform="rotate(45 225.693 105.474)" fill="white"/>
<rect x="340.072" y="105.474" width="2.16357" height="90.8699" transform="rotate(45 340.072 105.474)" fill="white"/>
<rect x="235.224" y="105.474" width="2.16357" height="90.8699" transform="rotate(45 235.224 105.474)" fill="white"/>
<rect x="349.604" y="105.474" width="2.16357" height="90.8699" transform="rotate(45 349.604 105.474)" fill="white"/>
<rect x="359.135" y="105.474" width="2.16357" height="90.8699" transform="rotate(45 359.135 105.474)" fill="white"/>
<rect x="244.756" y="105.474" width="2.16357" height="90.8699" transform="rotate(45 244.756 105.474)" fill="white"/>
<rect x="254.287" y="105.474" width="2.16357" height="90.8699" transform="rotate(45 254.287 105.474)" fill="white"/>
<rect x="263.819" y="105.474" width="2.16357" height="90.8699" transform="rotate(45 263.819 105.474)" fill="white"/>
</g>
<path d="M164.246 122.832H166.119L169.375 130.782H169.495L172.751 122.832H174.624V133.06H173.156V125.658H173.061L170.045 133.045H168.826L165.81 125.654H165.715V133.06H164.246V122.832Z" fill="#35393D"/>
<path d="M176.748 133.06V125.389H178.241V133.06H176.748ZM177.502 124.205C177.242 124.205 177.019 124.119 176.833 123.946C176.65 123.769 176.558 123.559 176.558 123.316C176.558 123.07 176.65 122.86 176.833 122.687C177.019 122.511 177.242 122.422 177.502 122.422C177.762 122.422 177.983 122.511 178.166 122.687C178.353 122.86 178.446 123.07 178.446 123.316C178.446 123.559 178.353 123.769 178.166 123.946C177.983 124.119 177.762 124.205 177.502 124.205Z" fill="#35393D"/>
<path d="M181.743 128.505V133.06H180.25V125.389H181.683V126.637H181.778C181.954 126.231 182.231 125.905 182.607 125.658C182.987 125.412 183.464 125.289 184.04 125.289C184.563 125.289 185.021 125.399 185.414 125.619C185.807 125.835 186.111 126.158 186.328 126.587C186.544 127.017 186.652 127.548 186.652 128.18V133.06H185.159V128.36C185.159 127.804 185.014 127.37 184.724 127.057C184.435 126.741 184.037 126.582 183.531 126.582C183.185 126.582 182.877 126.657 182.607 126.807C182.341 126.957 182.129 127.177 181.973 127.466C181.82 127.753 181.743 128.099 181.743 128.505Z" fill="#35393D"/>
<path d="M193.87 128.505V133.06H192.377V125.389H193.81V126.637H193.905C194.081 126.231 194.358 125.905 194.734 125.658C195.113 125.412 195.591 125.289 196.167 125.289C196.69 125.289 197.148 125.399 197.54 125.619C197.933 125.835 198.238 126.158 198.454 126.587C198.671 127.017 198.779 127.548 198.779 128.18V133.06H197.286V128.36C197.286 127.804 197.141 127.37 196.851 127.057C196.562 126.741 196.164 126.582 195.658 126.582C195.311 126.582 195.003 126.657 194.734 126.807C194.467 126.957 194.256 127.177 194.1 127.466C193.946 127.753 193.87 128.099 193.87 128.505Z" fill="#35393D"/>
<path d="M204.013 133.214C203.294 133.214 202.666 133.05 202.13 132.72C201.594 132.39 201.178 131.929 200.881 131.337C200.585 130.744 200.437 130.052 200.437 129.259C200.437 128.463 200.585 127.768 200.881 127.172C201.178 126.576 201.594 126.113 202.13 125.783C202.666 125.454 203.294 125.289 204.013 125.289C204.732 125.289 205.359 125.454 205.895 125.783C206.431 126.113 206.848 126.576 207.144 127.172C207.44 127.768 207.588 128.463 207.588 129.259C207.588 130.052 207.44 130.744 207.144 131.337C206.848 131.929 206.431 132.39 205.895 132.72C205.359 133.05 204.732 133.214 204.013 133.214ZM204.018 131.961C204.484 131.961 204.87 131.838 205.176 131.591C205.483 131.345 205.709 131.017 205.855 130.608C206.005 130.198 206.08 129.747 206.08 129.254C206.08 128.765 206.005 128.315 205.855 127.906C205.709 127.493 205.483 127.162 205.176 126.912C204.87 126.662 204.484 126.537 204.018 126.537C203.548 126.537 203.159 126.662 202.849 126.912C202.543 127.162 202.315 127.493 202.165 127.906C202.018 128.315 201.945 128.765 201.945 129.254C201.945 129.747 202.018 130.198 202.165 130.608C202.315 131.017 202.543 131.345 202.849 131.591C203.159 131.838 203.548 131.961 204.018 131.961Z" fill="#35393D"/>
<path d="M212.836 125.389V126.587H208.646V125.389H212.836ZM209.77 123.551H211.263V130.807C211.263 131.097 211.306 131.315 211.393 131.462C211.479 131.605 211.591 131.703 211.727 131.756C211.867 131.806 212.019 131.831 212.182 131.831C212.302 131.831 212.406 131.823 212.496 131.806C212.586 131.79 212.656 131.776 212.706 131.766L212.976 133C212.889 133.033 212.766 133.066 212.606 133.1C212.446 133.136 212.247 133.156 212.007 133.16C211.614 133.166 211.248 133.096 210.908 132.95C210.569 132.803 210.294 132.577 210.084 132.271C209.874 131.964 209.77 131.58 209.77 131.117V123.551Z" fill="#35393D"/>
<path d="M214.488 133.06V125.389H215.981V133.06H214.488ZM215.242 124.205C214.982 124.205 214.759 124.119 214.573 123.946C214.389 123.769 214.298 123.559 214.298 123.316C214.298 123.07 214.389 122.86 214.573 122.687C214.759 122.511 214.982 122.422 215.242 122.422C215.501 122.422 215.723 122.511 215.906 122.687C216.092 122.86 216.186 123.07 216.186 123.316C216.186 123.559 216.092 123.769 215.906 123.946C215.723 124.119 215.501 124.205 215.242 124.205Z" fill="#35393D"/>
<path d="M221.221 133.214C220.478 133.214 219.839 133.046 219.303 132.71C218.77 132.37 218.361 131.903 218.075 131.307C217.788 130.711 217.645 130.028 217.645 129.259C217.645 128.48 217.792 127.793 218.085 127.197C218.378 126.597 218.79 126.13 219.323 125.793C219.856 125.457 220.483 125.289 221.206 125.289C221.789 125.289 222.308 125.397 222.764 125.614C223.22 125.827 223.588 126.126 223.868 126.512C224.151 126.899 224.319 127.35 224.372 127.866H222.919C222.839 127.506 222.656 127.197 222.37 126.937C222.087 126.677 221.707 126.547 221.231 126.547C220.815 126.547 220.45 126.657 220.137 126.877C219.828 127.093 219.586 127.403 219.413 127.806C219.24 128.205 219.153 128.678 219.153 129.224C219.153 129.784 219.238 130.266 219.408 130.673C219.578 131.079 219.818 131.393 220.127 131.616C220.44 131.839 220.808 131.951 221.231 131.951C221.514 131.951 221.77 131.899 222 131.796C222.233 131.69 222.428 131.538 222.584 131.342C222.744 131.145 222.856 130.909 222.919 130.633H224.372C224.319 131.129 224.157 131.571 223.888 131.961C223.618 132.351 223.257 132.657 222.804 132.88C222.355 133.103 221.827 133.214 221.221 133.214Z" fill="#35393D"/>
<path d="M229.275 133.214C228.519 133.214 227.868 133.053 227.322 132.73C226.78 132.404 226.36 131.946 226.064 131.357C225.771 130.764 225.624 130.07 225.624 129.274C225.624 128.488 225.771 127.796 226.064 127.197C226.36 126.597 226.773 126.13 227.302 125.793C227.835 125.457 228.458 125.289 229.17 125.289C229.603 125.289 230.022 125.361 230.429 125.504C230.835 125.647 231.199 125.872 231.522 126.178C231.845 126.484 232.1 126.882 232.286 127.371C232.473 127.858 232.566 128.448 232.566 129.144V129.674H226.468V128.555H231.103C231.103 128.162 231.023 127.814 230.863 127.511C230.703 127.205 230.479 126.964 230.189 126.787C229.903 126.611 229.566 126.522 229.18 126.522C228.761 126.522 228.394 126.626 228.081 126.832C227.772 127.035 227.532 127.302 227.362 127.631C227.196 127.957 227.113 128.312 227.113 128.695V129.569C227.113 130.082 227.202 130.518 227.382 130.877C227.565 131.237 227.82 131.512 228.146 131.701C228.473 131.888 228.854 131.981 229.29 131.981C229.573 131.981 229.831 131.941 230.064 131.861C230.297 131.778 230.499 131.655 230.668 131.492C230.838 131.328 230.968 131.127 231.058 130.887L232.471 131.142C232.358 131.558 232.155 131.923 231.862 132.236C231.572 132.545 231.208 132.787 230.768 132.96C230.332 133.13 229.834 133.214 229.275 133.214Z" fill="#35393D"/>
</g>
<rect x="159.877" y="115.751" width="140.632" height="56.2528" rx="1.08178" stroke="white" stroke-width="2.16357" stroke-miterlimit="3.52094"/>
<rect x="152.218" y="106.556" width="2.01436" height="8.65428" fill="black"/>
<rect x="154.232" y="109.801" width="153.464" height="2.16357" fill="black"/>
<rect width="153.613" height="43.2714" transform="translate(153.387)" fill="white"/>
<g opacity="0.3">
<path d="M219.873 20.9434V24.8378H224.754V20.9434H219.873Z" fill="#888888"/>
<path d="M223.587 20.9434V24.8378H232.181V20.9434H223.587Z" fill="#888888"/>
<path d="M231.016 20.9434V24.8378H239.61V20.9434H231.016Z" fill="#888888"/>
</g>
<rect width="152.532" height="43.2714" transform="translate(0.855042)" fill="white"/>
<rect width="153.613" height="43.2714" transform="translate(307)" fill="white"/>
<g opacity="0.3">
<path d="M373.486 20.9434V24.8378H378.367V20.9434H373.486Z" fill="#888888"/>
<path d="M377.201 20.9434V24.8378H385.795V20.9434H377.201Z" fill="#888888"/>
<path d="M384.63 20.9434V24.8378H393.223V20.9434H384.63Z" fill="#888888"/>
</g>
<rect width="152.532" height="43.2714" transform="translate(460.613)" fill="white"/>
<g opacity="0.3">
<path d="M526.559 20.9434V24.8378H531.44V20.9434H526.559Z" fill="#888888"/>
<path d="M530.273 20.9434V24.8378H538.867V20.9434H530.273Z" fill="#888888"/>
<path d="M537.702 20.9434V24.8378H546.296V20.9434H537.702Z" fill="#888888"/>
</g>
<rect width="153.613" height="43.2714" transform="translate(1.38672)" fill="white"/>
<g opacity="0.3">
<path d="M67.873 20.9434V24.8378H72.7541V20.9434H67.873Z" fill="#888888"/>
<path d="M71.5875 20.9434V24.8378H80.1812V20.9434H71.5875Z" fill="#888888"/>
<path d="M79.0163 20.9434V24.8378H87.61V20.9434H79.0163Z" fill="#888888"/>
</g>
</g>
<defs>
<filter id="filter0_d_2913_69736" x="307" y="218.52" width="153.613" height="82.2155" filterUnits="userSpaceOnUse" color-interpolation-filters="sRGB">
<feFlood flood-opacity="0" result="BackgroundImageFix"/>
<feColorMatrix in="SourceAlpha" type="matrix" values="0 0 0 0 0 0 0 0 0 0 0 0 0 0 0 0 0 0 127 0" result="hardAlpha"/>
<feMorphology radius="1.08178" operator="erode" in="SourceAlpha" result="effect1_dropShadow_2913_69736"/>
<feOffset dy="4.32714"/>
<feGaussianBlur stdDeviation="3.24535"/>
<feColorMatrix type="matrix" values="0 0 0 0 1 0 0 0 0 1 0 0 0 0 1 0 0 0 0.1 0"/>
<feBlend mode="normal" in2="BackgroundImageFix" result="effect1_dropShadow_2913_69736"/>
<feBlend mode="normal" in="SourceGraphic" in2="effect1_dropShadow_2913_69736" result="shape"/>
</filter>
<clipPath id="clip0_2913_69736">
<rect width="613" height="521" fill="white"/>
</clipPath>
<clipPath id="clip1_2913_69736">
<rect x="312.409" y="184.985" width="142.796" height="30.29" rx="2.16357" fill="white"/>
</clipPath>
<clipPath id="clip2_2913_69736">
<rect x="312.409" y="295.985" width="142.796" height="30.29" rx="2.16357" fill="white"/>
</clipPath>
<clipPath id="clip3_2913_69736">
<rect x="158.795" y="114.669" width="142.796" height="58.4164" rx="2.16357" fill="white"/>
</clipPath>
</defs>
</svg>
